# xmcd
#
# Track frame offsets:
#	150
#	8787
#	16255
#	22865
#	33670
#	43454
#	50747
#	58522
#	67796
#	76161
#	82944
#	93245
#	105254
#	113592
#	122849
#
# Disc length: 1792 seconds
#
# Revision: 1
# Processed by: cddbd v1.5.2PL0 Copyright (c) Steve Scherf et al.
# Submitted via: EasyCDDAExtractor 11.0.3.2
#
DISCID=aa06fe0f
DTITLE=David "Stringbean" Akeman - Barn Yard Banjo Pickin' [Disk-2]
DYEAR=2006
DGENRE=Country
TTITLE0=Ida Red
TTITLE1=Tennessee Farmer
TTITLE2=Pretty Little Widow
TTITLE3=John Henry
TTITLE4=Threre'll Be Moonshine in Them Old Kentucky Hills
TTITLE5=Hesitation Blues
TTITLE6=How Many Biscuits Can You Eat
TTITLE7=Bully of the Town
TTITLE8=I'm the Man Who Rode the Mule Round the World
TTITLE9=Cripple Creek
TTITLE10=Free Little Bird
TTITLE11=You Can't Do Wrong and Get By
TTITLE12=Little Pink
TTITLE13=Little Adobe Shack
TTITLE14=Short Life and Trouble
EXTD=YEAR: 2006
EXTT0=
EXTT1=
EXTT2=
EXTT3=
EXTT4=
EXTT5=
EXTT6=
EXTT7=
EXTT8=
EXTT9=
EXTT10=
EXTT11=
EXTT12=
EXTT13=
EXTT14=
PLAYORDER=
